<?xml version="1.0" encoding="UTF-8" standalone="no"?>
<!DOCTYPE svg PUBLIC "-//W3C//DTD SVG 1.1//EN" "http://www.w3.org/Graphics/SVG/1.1/DTD/svg11.dtd">
<svg width="100%" height="100%" viewBox="0 0 460 130" version="1.1" xmlns="http://www.w3.org/2000/svg" xmlns:xlink="http://www.w3.org/1999/xlink" xml:space="preserve" xmlns:serif="http://www.serif.com/" style="fill-rule:evenodd;clip-rule:evenodd;stroke-linejoin:round;stroke-miterlimit:2;">
    <defs>
        <radialGradient id="glow" cx="42" cy="8" r="14" gradientUnits="userSpaceOnUse">
            <stop offset="0%" stop-color="rgb(248,226,85)" stop-opacity="0.3"/>
            <stop offset="100%" stop-color="rgb(248,226,85)" stop-opacity="0"/>
        </radialGradient>
    </defs>
    <g transform="matrix(1.6,0,0,1.6,3,20)">
        <circle cx="30" cy="28" r="16" fill="url(#glow)"/>
        <path d="M42,28 Q56,28 56,38 Q56,50 42,48" fill="none" stroke="rgb(248,226,85)" stroke-width="4" stroke-linecap="round"/>
        <path d="M14,14 L14,52 Q14,56 18,58 L40,58 Q44,56 44,52 L44,14 Z M14,18 Q28,10 44,18 L44,22 Q28,14 14,22 Z" fill="rgb(75,125,132)" fill-rule="nonzero"/>
        <path d="M16,18 L16,50 Q16,54 20,56 L38,56 Q42,54 42,50 L42,18 Z" fill="rgb(116,195,165)" fill-rule="nonzero"/>
        <path d="M16,22 L16,50 Q16,52 20,54 L38,54 Q42,52 42,50 L42,22 Z" fill="rgb(248,226,85)" fill-rule="nonzero"/>
        <path d="M16,20 Q28,14 42,20 L42,22 Q28,16 16,22 Z" fill="rgb(116,195,165)" fill-rule="nonzero"/>
    </g>
    <g transform="matrix(0.0736961,0,0,0.0714348,-121.976,46.5174)">
        <g transform="matrix(1495.5,0,0,1495.5,2279.88,844.701)">
            <path d="M0.285,0.012C0.234,0.012 0.19,0 0.152,-0.022C0.114,-0.045 0.084,-0.076 0.063,-0.117C0.041,-0.157 0.031,-0.204 0.031,-0.257C0.031,-0.311 0.041,-0.358 0.063,-0.398C0.084,-0.439 0.114,-0.47 0.152,-0.493C0.19,-0.516 0.234,-0.527 0.285,-0.527C0.336,-0.527 0.38,-0.516 0.418,-0.493C0.456,-0.47 0.486,-0.439 0.508,-0.398C0.529,-0.358 0.54,-0.311 0.54,-0.257C0.54,-0.204 0.529,-0.157 0.508,-0.117C0.486,-0.076 0.456,-0.045 0.418,-0.022C0.38,0 0.336,0.012 0.285,0.012ZM0.285,-0.091C0.325,-0.091 0.356,-0.106 0.379,-0.136C0.403,-0.165 0.415,-0.206 0.415,-0.257C0.415,-0.309 0.403,-0.349 0.379,-0.379C0.356,-0.409 0.325,-0.424 0.285,-0.424C0.245,-0.424 0.214,-0.409 0.19,-0.38C0.167,-0.35 0.155,-0.309 0.155,-0.257C0.155,-0.206 0.167,-0.165 0.19,-0.136C0.214,-0.106 0.245,-0.091 0.285,-0.091Z" style="fill:rgb(75,125,132);fill-rule:nonzero;"/>
        </g>
        <g transform="matrix(1495.5,0,0,1495.5,3102.14,844.701)">
            <path d="M0.055,-0L0.055,-0.516L0.174,-0.516L0.174,-0.426C0.189,-0.459 0.211,-0.484 0.239,-0.501C0.266,-0.518 0.297,-0.526 0.329,-0.526C0.364,-0.526 0.395,-0.517 0.421,-0.499C0.448,-0.482 0.467,-0.458 0.478,-0.428C0.491,-0.458 0.513,-0.482 0.542,-0.499C0.57,-0.517 0.604,-0.526 0.642,-0.526C0.69,-0.526 0.731,-0.51 0.765,-0.479C0.798,-0.447 0.814,-0.401 0.814,-0.34L0.814,-0L0.691,-0L0.691,-0.323C0.691,-0.357 0.682,-0.382 0.663,-0.398C0.644,-0.413 0.622,-0.421 0.595,-0.421C0.564,-0.421 0.539,-0.412 0.521,-0.392C0.503,-0.373 0.494,-0.347 0.494,-0.316L0.494,-0L0.375,-0L0.375,-0.329C0.375,-0.357 0.366,-0.379 0.348,-0.396C0.331,-0.413 0.308,-0.421 0.281,-0.421C0.253,-0.421 0.229,-0.412 0.208,-0.392C0.188,-0.373 0.178,-0.345 0.178,-0.308L0.178,-0L0.055,-0Z" style="fill:rgb(75,125,132);fill-rule:nonzero;"/>
        </g>
        <g transform="matrix(1495.5,0,0,1495.5,4371.3,844.701)">
            <path d="M0.285,0.012C0.234,0.012 0.19,0 0.152,-0.022C0.114,-0.045 0.084,-0.076 0.063,-0.117C0.041,-0.157 0.031,-0.204 0.031,-0.257C0.031,-0.311 0.041,-0.358 0.063,-0.398C0.084,-0.439 0.114,-0.47 0.152,-0.493C0.19,-0.516 0.234,-0.527 0.285,-0.527C0.336,-0.527 0.38,-0.516 0.418,-0.493C0.456,-0.47 0.486,-0.439 0.508,-0.398C0.529,-0.358 0.54,-0.311 0.54,-0.257C0.54,-0.204 0.529,-0.157 0.508,-0.117C0.486,-0.076 0.456,-0.045 0.418,-0.022C0.38,0 0.336,0.012 0.285,0.012ZM0.285,-0.091C0.325,-0.091 0.356,-0.106 0.379,-0.136C0.403,-0.165 0.415,-0.206 0.415,-0.257C0.415,-0.309 0.403,-0.349 0.379,-0.379C0.356,-0.409 0.325,-0.424 0.285,-0.424C0.245,-0.424 0.214,-0.409 0.19,-0.38C0.167,-0.35 0.155,-0.309 0.155,-0.257C0.155,-0.206 0.167,-0.165 0.19,-0.136C0.214,-0.106 0.245,-0.091 0.285,-0.091Z" style="fill:rgb(75,125,132);fill-rule:nonzero;"/>
        </g>
        <g transform="matrix(1495.5,0,0,1495.5,5501.75,844.701)">
            <path d="M0.178,-0.292L0.178,-0L0.055,-0L0.055,-0.516L0.176,-0.516L0.176,-0.437C0.212,-0.496 0.264,-0.526 0.334,-0.526C0.388,-0.526 0.432,-0.508 0.467,-0.474C0.501,-0.439 0.518,-0.388 0.518,-0.322L0.518,-0L0.395,-0L0.395,-0.303C0.395,-0.34 0.385,-0.369 0.367,-0.389C0.349,-0.408 0.323,-0.418 0.291,-0.418C0.258,-0.418 0.231,-0.408 0.21,-0.388C0.188,-0.368 0.178,-0.335 0.178,-0.292Z" style="fill:rgb(75,125,132);fill-rule:nonzero;"/>
        </g>
        <g transform="matrix(1495.5,0,0,1495.5,6294.8,844.701)">
            <path d="M0.064,0.204L0.064,0.104L0.125,0.104C0.142,0.104 0.155,0.1 0.164,0.091C0.173,0.082 0.181,0.067 0.188,0.047L0.208,-0.003L0.009,-0.516L0.139,-0.516L0.234,-0.247C0.24,-0.228 0.247,-0.209 0.253,-0.19C0.259,-0.171 0.265,-0.152 0.271,-0.133C0.283,-0.171 0.295,-0.209 0.308,-0.247L0.402,-0.516L0.531,-0.516L0.301,0.085C0.27,0.164 0.218,0.204 0.145,0.204L0.064,0.204Z" style="fill:rgb(75,125,132);fill-rule:nonzero;"/>
        </g>
        <g transform="matrix(1495.5,0,0,1495.5,7044.77,844.701)">
            <path d="M0.283,0.012C0.233,0.012 0.189,0 0.151,-0.022C0.113,-0.045 0.083,-0.077 0.062,-0.117C0.041,-0.158 0.031,-0.204 0.031,-0.257C0.031,-0.31 0.041,-0.357 0.062,-0.398C0.083,-0.438 0.113,-0.47 0.151,-0.493C0.189,-0.516 0.233,-0.527 0.283,-0.527C0.326,-0.527 0.365,-0.519 0.398,-0.502C0.432,-0.485 0.46,-0.462 0.48,-0.433C0.501,-0.403 0.513,-0.369 0.517,-0.331L0.396,-0.331C0.391,-0.359 0.38,-0.381 0.361,-0.399C0.342,-0.416 0.316,-0.425 0.284,-0.425C0.244,-0.425 0.212,-0.41 0.189,-0.379C0.167,-0.349 0.155,-0.308 0.155,-0.257C0.155,-0.207 0.167,-0.166 0.189,-0.136C0.212,-0.106 0.244,-0.091 0.284,-0.091C0.316,-0.091 0.341,-0.099 0.359,-0.116C0.377,-0.134 0.389,-0.156 0.395,-0.185L0.517,-0.185C0.514,-0.147 0.502,-0.114 0.481,-0.084C0.461,-0.054 0.433,-0.031 0.399,-0.014C0.365,0.003 0.326,0.012 0.283,0.012Z" style="fill:rgb(75,125,132);fill-rule:nonzero;"/>
        </g>
    </g>
    <g transform="matrix(0.0736961,0,0,0.0714348,-127.637,46.4918)">
        <g transform="matrix(1495.5,0,0,1495.5,2279.88,844.701)">
            <path d="M0.285,0.012C0.234,0.012 0.19,0 0.152,-0.022C0.114,-0.045 0.084,-0.076 0.063,-0.117C0.041,-0.157 0.031,-0.204 0.031,-0.257C0.031,-0.311 0.041,-0.358 0.063,-0.398C0.084,-0.439 0.114,-0.47 0.152,-0.493C0.19,-0.516 0.234,-0.527 0.285,-0.527C0.336,-0.527 0.38,-0.516 0.418,-0.493C0.456,-0.47 0.486,-0.439 0.508,-0.398C0.529,-0.358 0.54,-0.311 0.54,-0.257C0.54,-0.204 0.529,-0.157 0.508,-0.117C0.486,-0.076 0.456,-0.045 0.418,-0.022C0.38,0 0.336,0.012 0.285,0.012ZM0.285,-0.091C0.325,-0.091 0.356,-0.106 0.379,-0.136C0.403,-0.165 0.415,-0.206 0.415,-0.257C0.415,-0.309 0.403,-0.349 0.379,-0.379C0.356,-0.409 0.325,-0.424 0.285,-0.424C0.245,-0.424 0.214,-0.409 0.19,-0.38C0.167,-0.35 0.155,-0.309 0.155,-0.257C0.155,-0.206 0.167,-0.165 0.19,-0.136C0.214,-0.106 0.245,-0.091 0.285,-0.091Z" style="fill:rgb(116,195,165);fill-rule:nonzero;"/>
        </g>
        <g transform="matrix(1495.5,0,0,1495.5,3102.14,844.701)">
            <path d="M0.055,-0L0.055,-0.516L0.174,-0.516L0.174,-0.426C0.189,-0.459 0.211,-0.484 0.239,-0.501C0.266,-0.518 0.297,-0.526 0.329,-0.526C0.364,-0.526 0.395,-0.517 0.421,-0.499C0.448,-0.482 0.467,-0.458 0.478,-0.428C0.491,-0.458 0.513,-0.482 0.542,-0.499C0.57,-0.517 0.604,-0.526 0.642,-0.526C0.69,-0.526 0.731,-0.51 0.765,-0.479C0.798,-0.447 0.814,-0.401 0.814,-0.34L0.814,-0L0.691,-0L0.691,-0.323C0.691,-0.357 0.682,-0.382 0.663,-0.398C0.644,-0.413 0.622,-0.421 0.595,-0.421C0.564,-0.421 0.539,-0.412 0.521,-0.392C0.503,-0.373 0.494,-0.347 0.494,-0.316L0.494,-0L0.375,-0L0.375,-0.329C0.375,-0.357 0.366,-0.379 0.348,-0.396C0.331,-0.413 0.308,-0.421 0.281,-0.421C0.253,-0.421 0.229,-0.412 0.208,-0.392C0.188,-0.373 0.178,-0.345 0.178,-0.308L0.178,-0L0.055,-0Z" style="fill:rgb(116,195,165);fill-rule:nonzero;"/>
        </g>
        <g transform="matrix(1495.5,0,0,1495.5,4371.3,844.701)">
            <path d="M0.285,0.012C0.234,0.012 0.19,0 0.152,-0.022C0.114,-0.045 0.084,-0.076 0.063,-0.117C0.041,-0.157 0.031,-0.204 0.031,-0.257C0.031,-0.311 0.041,-0.358 0.063,-0.398C0.084,-0.439 0.114,-0.47 0.152,-0.493C0.19,-0.516 0.234,-0.527 0.285,-0.527C0.336,-0.527 0.38,-0.516 0.418,-0.493C0.456,-0.47 0.486,-0.439 0.508,-0.398C0.529,-0.358 0.54,-0.311 0.54,-0.257C0.54,-0.204 0.529,-0.157 0.508,-0.117C0.486,-0.076 0.456,-0.045 0.418,-0.022C0.38,0 0.336,0.012 0.285,0.012ZM0.285,-0.091C0.325,-0.091 0.356,-0.106 0.379,-0.136C0.403,-0.165 0.415,-0.206 0.415,-0.257C0.415,-0.309 0.403,-0.349 0.379,-0.379C0.356,-0.409 0.325,-0.424 0.285,-0.424C0.245,-0.424 0.214,-0.409 0.19,-0.38C0.167,-0.35 0.155,-0.309 0.155,-0.257C0.155,-0.206 0.167,-0.165 0.19,-0.136C0.214,-0.106 0.245,-0.091 0.285,-0.091Z" style="fill:rgb(116,195,165);fill-rule:nonzero;"/>
        </g>
        <g transform="matrix(1495.5,0,0,1495.5,5501.75,844.701)">
            <path d="M0.178,-0.292L0.178,-0L0.055,-0L0.055,-0.516L0.176,-0.516L0.176,-0.437C0.212,-0.496 0.264,-0.526 0.334,-0.526C0.388,-0.526 0.432,-0.508 0.467,-0.474C0.501,-0.439 0.518,-0.388 0.518,-0.322L0.518,-0L0.395,-0L0.395,-0.303C0.395,-0.34 0.385,-0.369 0.367,-0.389C0.349,-0.408 0.323,-0.418 0.291,-0.418C0.258,-0.418 0.231,-0.408 0.21,-0.388C0.188,-0.368 0.178,-0.335 0.178,-0.292Z" style="fill:rgb(116,195,165);fill-rule:nonzero;"/>
        </g>
        <g transform="matrix(1495.5,0,0,1495.5,6294.8,844.701)">
            <path d="M0.064,0.204L0.064,0.104L0.125,0.104C0.142,0.104 0.155,0.1 0.164,0.091C0.173,0.082 0.181,0.067 0.188,0.047L0.208,-0.003L0.009,-0.516L0.139,-0.516L0.234,-0.247C0.24,-0.228 0.247,-0.209 0.253,-0.19C0.259,-0.171 0.265,-0.152 0.271,-0.133C0.283,-0.171 0.295,-0.209 0.308,-0.247L0.402,-0.516L0.531,-0.516L0.301,0.085C0.27,0.164 0.218,0.204 0.145,0.204L0.064,0.204Z" style="fill:rgb(116,195,165);fill-rule:nonzero;"/>
        </g>
        <g transform="matrix(1495.5,0,0,1495.5,7044.77,844.701)">
            <path d="M0.283,0.012C0.233,0.012 0.189,0 0.151,-0.022C0.113,-0.045 0.083,-0.077 0.062,-0.117C0.041,-0.158 0.031,-0.204 0.031,-0.257C0.031,-0.31 0.041,-0.357 0.062,-0.398C0.083,-0.438 0.113,-0.47 0.151,-0.493C0.189,-0.516 0.233,-0.527 0.283,-0.527C0.326,-0.527 0.365,-0.519 0.398,-0.502C0.432,-0.485 0.46,-0.462 0.48,-0.433C0.501,-0.403 0.513,-0.369 0.517,-0.331L0.396,-0.331C0.391,-0.359 0.38,-0.381 0.361,-0.399C0.342,-0.416 0.316,-0.425 0.284,-0.425C0.244,-0.425 0.212,-0.41 0.189,-0.379C0.167,-0.349 0.155,-0.308 0.155,-0.257C0.155,-0.207 0.167,-0.166 0.189,-0.136C0.212,-0.106 0.244,-0.091 0.284,-0.091C0.316,-0.091 0.341,-0.099 0.359,-0.116C0.377,-0.134 0.389,-0.156 0.395,-0.185L0.517,-0.185C0.514,-0.147 0.502,-0.114 0.481,-0.084C0.461,-0.054 0.433,-0.031 0.399,-0.014C0.365,0.003 0.326,0.012 0.283,0.012Z" style="fill:rgb(116,195,165);fill-rule:nonzero;"/>
        </g>
    </g>
    <g transform="matrix(0.0662247,0,0,0.063074,126.218,55.5779)">
        <g transform="matrix(1600,0,0,1600,1971.69,844.701)">
            <path d="M0.11,0.008C0.093,0.008 0.079,0.002 0.067,-0.01C0.055,-0.021 0.049,-0.036 0.049,-0.053C0.049,-0.07 0.055,-0.084 0.067,-0.096C0.079,-0.108 0.093,-0.114 0.11,-0.114C0.127,-0.114 0.142,-0.108 0.153,-0.096C0.165,-0.084 0.171,-0.07 0.171,-0.053C0.171,-0.036 0.165,-0.021 0.153,-0.01C0.142,0.002 0.127,0.008 0.11,0.008Z" style="fill:rgb(255,158,9);fill-rule:nonzero;"/>
        </g>
    </g>
    <g transform="matrix(0.0559496,0,0,0.0532878,147.111,62.302)">
        <g transform="matrix(1600,0,0,1600,1971.69,844.701)">
            <path d="M0.11,0.008C0.093,0.008 0.079,0.002 0.067,-0.01C0.055,-0.021 0.049,-0.036 0.049,-0.053C0.049,-0.07 0.055,-0.084 0.067,-0.096C0.079,-0.108 0.093,-0.114 0.11,-0.114C0.127,-0.114 0.142,-0.108 0.153,-0.096C0.165,-0.084 0.171,-0.07 0.171,-0.053C0.171,-0.036 0.165,-0.021 0.153,-0.01C0.142,0.002 0.127,0.008 0.11,0.008Z" style="fill:rgb(248,226,85);fill-rule:nonzero;"/>
        </g>
    </g>
</svg>
