<?xml version="1.0" encoding="UTF-8" standalone="no"?>
<svg viewBox="0 0 64 64" xmlns="http://www.w3.org/2000/svg" style="fill-rule:evenodd;clip-rule:evenodd;stroke-linejoin:round;stroke-miterlimit:2;">
    <defs>
        <radialGradient id="glow" cx="42" cy="8" r="14" gradientUnits="userSpaceOnUse">
            <stop offset="0%" stop-color="rgb(248,226,85)" stop-opacity="0.3"/>
            <stop offset="100%" stop-color="rgb(248,226,85)" stop-opacity="0"/>
        </radialGradient>
    </defs>
    <rect width="64" height="64" fill="rgb(15,25,35)"/>
    <circle cx="42" cy="8" r="14" fill="url(#glow)"/>
    <path d="M0,64 L0,46 L4,40 L8,34 L12,28 L16,24 L20,20 L24,16 L26,12 L28,16 L30,20 L34,16 L38,12 L42,10 L44,14 L46,20 L50,28 L56,38 L64,46 L64,64 Z" fill="rgb(75,125,132)" fill-rule="nonzero"/>
    <path d="M0,64 L0,52 L6,46 L10,40 L14,34 L18,30 L22,26 L24,22 L26,18 L28,22 L30,26 L34,22 L38,18 L42,16 L44,20 L46,26 L50,34 L56,44 L64,52 L64,64 Z" fill="rgb(116,195,165)" fill-rule="nonzero"/>
    <polygon points="42,1 43,4 46.5,4 43.5,6.5 44.5,10 42,8 39.5,10 40.5,6.5 37.5,4 41,4" fill="rgb(248,226,85)" fill-rule="nonzero"/>
</svg>
